<mxfile host="app.diagrams.net" modified="2023-05-15T05:31:28.300Z" agent="Mozilla/5.0 (X11; Ubuntu; Linux x86_64; rv:109.0) Gecko/20100101 Firefox/112.0" etag="jAx3SUGRj1Ls2RG6xAOQ" version="21.2.9" type="github">
  <diagram name="Page-1" id="POjnSMfVld82Jkz3L6Rk">
    <mxGraphModel dx="1050" dy="579" grid="1" gridSize="10" guides="1" tooltips="1" connect="1" arrows="1" fold="1" page="1" pageScale="1" pageWidth="850" pageHeight="1100" math="0" shadow="0">
      <root>
        <mxCell id="0" />
        <mxCell id="1" parent="0" />
        <mxCell id="deAnfcSIK4ebDiLaNuB3-11" style="edgeStyle=orthogonalEdgeStyle;rounded=0;orthogonalLoop=1;jettySize=auto;html=1;exitX=1;exitY=0.5;exitDx=0;exitDy=0;" edge="1" parent="1" source="deAnfcSIK4ebDiLaNuB3-1" target="deAnfcSIK4ebDiLaNuB3-4">
          <mxGeometry relative="1" as="geometry" />
        </mxCell>
        <mxCell id="deAnfcSIK4ebDiLaNuB3-1" value="Content Created" style="rounded=1;whiteSpace=wrap;html=1;" vertex="1" parent="1">
          <mxGeometry x="70" y="130" width="120" height="60" as="geometry" />
        </mxCell>
        <mxCell id="deAnfcSIK4ebDiLaNuB3-5" style="edgeStyle=orthogonalEdgeStyle;rounded=0;orthogonalLoop=1;jettySize=auto;html=1;exitX=1;exitY=0.5;exitDx=0;exitDy=0;entryX=0;entryY=0.5;entryDx=0;entryDy=0;" edge="1" parent="1" source="deAnfcSIK4ebDiLaNuB3-2" target="deAnfcSIK4ebDiLaNuB3-4">
          <mxGeometry relative="1" as="geometry" />
        </mxCell>
        <mxCell id="deAnfcSIK4ebDiLaNuB3-2" value="Content Updated" style="rounded=1;whiteSpace=wrap;html=1;" vertex="1" parent="1">
          <mxGeometry x="70" y="220" width="120" height="60" as="geometry" />
        </mxCell>
        <mxCell id="deAnfcSIK4ebDiLaNuB3-10" style="edgeStyle=orthogonalEdgeStyle;rounded=0;orthogonalLoop=1;jettySize=auto;html=1;exitX=1;exitY=0.5;exitDx=0;exitDy=0;entryX=0;entryY=0.5;entryDx=0;entryDy=0;" edge="1" parent="1" source="deAnfcSIK4ebDiLaNuB3-3" target="deAnfcSIK4ebDiLaNuB3-4">
          <mxGeometry relative="1" as="geometry" />
        </mxCell>
        <mxCell id="deAnfcSIK4ebDiLaNuB3-3" value="Content Deleted" style="rounded=1;whiteSpace=wrap;html=1;" vertex="1" parent="1">
          <mxGeometry x="70" y="310" width="120" height="60" as="geometry" />
        </mxCell>
        <mxCell id="deAnfcSIK4ebDiLaNuB3-4" value="ExternalSearchIngestion&lt;br&gt;&lt;div align=&quot;left&quot;&gt;&lt;ul&gt;&lt;li&gt;Cloud Functions implemention&lt;br&gt;&lt;/li&gt;&lt;/ul&gt;&lt;/div&gt;" style="rounded=1;whiteSpace=wrap;html=1;" vertex="1" parent="1">
          <mxGeometry x="330" y="190" width="330" height="120" as="geometry" />
        </mxCell>
        <mxCell id="deAnfcSIK4ebDiLaNuB3-12" style="edgeStyle=orthogonalEdgeStyle;rounded=0;orthogonalLoop=1;jettySize=auto;html=1;exitX=0.5;exitY=1;exitDx=0;exitDy=0;entryX=0.5;entryY=0;entryDx=0;entryDy=0;" edge="1" parent="1" source="deAnfcSIK4ebDiLaNuB3-8" target="deAnfcSIK4ebDiLaNuB3-4">
          <mxGeometry relative="1" as="geometry" />
        </mxCell>
        <mxCell id="deAnfcSIK4ebDiLaNuB3-8" value="ContentModel&lt;br&gt;&lt;div align=&quot;left&quot;&gt;&lt;ul&gt;&lt;li&gt;content Data model&lt;/li&gt;&lt;li&gt;Provides functionalities to populate content object from firestore response&lt;br&gt;&lt;/li&gt;&lt;/ul&gt;&lt;/div&gt;" style="rounded=1;whiteSpace=wrap;html=1;" vertex="1" parent="1">
          <mxGeometry x="375" y="10" width="240" height="130" as="geometry" />
        </mxCell>
        <mxCell id="deAnfcSIK4ebDiLaNuB3-14" style="edgeStyle=orthogonalEdgeStyle;rounded=0;orthogonalLoop=1;jettySize=auto;html=1;exitX=0.5;exitY=0;exitDx=0;exitDy=0;entryX=0.5;entryY=1;entryDx=0;entryDy=0;" edge="1" parent="1" source="deAnfcSIK4ebDiLaNuB3-9" target="deAnfcSIK4ebDiLaNuB3-4">
          <mxGeometry relative="1" as="geometry" />
        </mxCell>
        <mxCell id="deAnfcSIK4ebDiLaNuB3-9" value="ExternalSearchUtils&lt;br&gt;&lt;div align=&quot;left&quot;&gt;&lt;ul&gt;&lt;li&gt;Provides helper functions for data ingestion to algolia&lt;br&gt;&lt;/li&gt;&lt;/ul&gt;&lt;/div&gt;" style="rounded=1;whiteSpace=wrap;html=1;" vertex="1" parent="1">
          <mxGeometry x="395" y="370" width="200" height="80" as="geometry" />
        </mxCell>
        <mxCell id="deAnfcSIK4ebDiLaNuB3-17" value="Triggers" style="text;html=1;strokeColor=none;fillColor=none;align=center;verticalAlign=middle;whiteSpace=wrap;rounded=0;" vertex="1" parent="1">
          <mxGeometry x="260" y="220" width="60" height="30" as="geometry" />
        </mxCell>
      </root>
    </mxGraphModel>
  </diagram>
</mxfile>
